<?xml version="1.0" encoding="UTF-8"?>
<svg id="Layer_1" data-name="Layer 1" xmlns="http://www.w3.org/2000/svg" viewBox="0 0 960 960">
  <defs>
    <style>
      .cls-1 {
        fill: #6c78af;
      }

      .cls-1, .cls-2, .cls-3 {
        stroke-width: 0px;
      }

      .cls-2 {
        fill: #ccc;
      }

      .cls-3 {
        fill: #f89c0e;
      }
    </style>
  </defs>
  <g id="g5">
    <path id="path14" class="cls-2" d="M687.69,222.49l-.45-.9c-.22-.22-.45-.45-.89-.45l-.9.23c-.45.45-.67.67-.67,1.12l-19.03,344.54,2.91-.45,18.36-335.16,21.94,36.05h-.22c16.57,48.81,23.51,100.75,20.82,155.83l1.34,2.01,21.72,38.51,1.34,1.34c33.36,29.33,70.75,49.03,112.17,59.11l10.07,16.35,1.34.45.22-.45-190.53-311.65.45-6.49"/>
    <path id="path18" class="cls-2" d="M680.97,344.06c23.51,48.14,32.01,120.9,25.75,218.29l91.57-11.19-117.32-207.1Z"/>
    <path id="path20" class="cls-2" d="M889.64,555.63c9.4-1.12,15.45-3.13,18.13-6.04l-479.12,58.44h-.22c.22,19.93,9.18,35.6,26.64,46.79,4.7,3.36,9.63,5.82,14.1,7.39,4.25-4.92,8.96-8.51,14.56-11.87h.22c50.15-30.45,124.71-35.15,223.22-14.33l1.12.22c10.75,2.24,21.49,4.93,31.57,8.06,2.91.45,5.37-.45,7.39-2.24,3.58-2.69,8.06-4.7,14.11-6.04v-.22c15.9-28.21,37.39-49.03,64.26-62.69,18.58-9.18,40.08-15.22,64.03-17.46"/>
    <path id="path22" class="cls-2" d="M659.48,564.37l21.94-336.28c-31.79,122.69-82.84,237.32-152.92,343.67l130.98-7.39"/>
    <path id="path24" class="cls-2" d="M536.12,293.46l-.9-.45-.9.22-.45,1.12-18.13,291.06,2.69-.22,18.14-290.83-.45-.89"/>
    <path id="path26" class="cls-2" d="M510.6,579.14h0l19.25-283.89-101.42,292.62,82.17-8.73"/>
  </g>
  <g id="g13">
    <g id="path34">
      <path class="cls-2" d="M405.59,687.18c-.49,0-.97-.28-1.19-.76-.31-.66-.03-1.45.63-1.76,12.17-5.75,22.94-9.12,32-10.03,9.22-.92,16.96.67,23.02,4.74,11.35,7.19,29.52,4.9,54.01-6.8.66-.31,1.45-.04,1.76.62s.04,1.45-.62,1.76c-12.65,6.04-23.81,9.67-33.19,10.78-9.43,1.12-17.3-.28-23.39-4.14-.01,0-.02-.01-.03-.02-5.53-3.72-12.7-5.18-21.3-4.32-8.76.88-19.24,4.17-31.14,9.79-.18.09-.37.13-.56.13Z"/>
    </g>
    <g id="path36">
      <path class="cls-2" d="M474.44,697.79c-3.78,0-7.67-.18-11.65-.54-.73-.07-1.26-.71-1.19-1.43.07-.73.71-1.26,1.43-1.19,22.06,2.01,40.17-1.52,55.39-10.78,15.74-9.35,29.33-13.63,40.42-12.73,5.26.44,10.49,1.52,15.53,3.2.69.23,1.07.98.83,1.67-.23.69-.98,1.07-1.67.83-4.85-1.62-9.87-2.65-14.92-3.07-10.53-.86-23.6,3.3-38.84,12.36-7.8,4.75-16.55,8.09-26,9.93-6.04,1.18-12.51,1.77-19.34,1.77Z"/>
    </g>
    <g id="path38">
      <path class="cls-2" d="M481.72,669.72c-.42,0-.83-.2-1.09-.57-.41-.6-.26-1.42.34-1.84,11.81-8.15,25.67-14.68,41.21-19.41,15.49-4.71,33.09-7.76,52.31-9.06,19.17-1.3,40.5-.9,63.39,1.2,22.85,2.09,47.91,5.92,74.49,11.39.71.15,1.17.84,1.03,1.56-.15.71-.84,1.17-1.56,1.03-105.79-21.78-182.96-16.58-229.36,15.47-.23.16-.49.23-.75.23Z"/>
    </g>
    <g id="path40">
      <path class="cls-2" d="M678.9,685.38c-3.51,0-7.11-.15-10.8-.45-.73-.06-1.27-.7-1.21-1.42.06-.73.69-1.27,1.42-1.21,22.07,1.78,40.2-1.75,55.42-10.79,15.71-9.34,29.3-13.62,40.38-12.72,5.35.23,10.6,1.31,15.61,3.22.68.26,1.02,1.02.76,1.7-.26.68-1.02,1.02-1.7.76-4.76-1.81-9.74-2.84-14.81-3.05-.02,0-.03,0-.05,0-10.53-.86-23.6,3.3-38.85,12.36-7.8,4.64-16.55,7.92-26,9.76-6.29,1.22-13.05,1.84-20.18,1.84Z"/>
    </g>
    <g id="path42">
      <path class="cls-2" d="M601.94,304.93c-.83,0-1.66-.32-2.28-.96-9.16-9.36-18.43-11.03-28.32-5.09-1.51.91-3.47.42-4.38-1.09-.91-1.51-.42-3.47,1.09-4.38,6.26-3.75,12.53-5.12,18.64-4.07,5.27.91,10.43,3.63,15.38,8.12,5.61-4.49,11.26-7.22,16.81-8.12,6.44-1.04,12.83.34,18.97,4.09,1.5.92,1.97,2.88,1.05,4.39-.92,1.5-2.88,1.97-4.39,1.05-9.77-5.98-19.73-4.26-30.47,5.26-.61.54-1.36.8-2.12.8Z"/>
    </g>
    <g id="path44">
      <path class="cls-2" d="M577.98,269.78h-.02c-.89,0-1.74-.38-2.35-1.05-9.92-10.93-19.52-13.37-29.36-7.47-1.51.91-3.47.42-4.38-1.09-.91-1.51-.42-3.47,1.09-4.38,6.32-3.79,12.76-4.93,19.15-3.39,5.37,1.3,10.7,4.52,15.87,9.6,11.51-11.15,23.26-13.24,34.98-6.21,1.51.91,2,2.87,1.09,4.38-.91,1.51-2.87,2-4.38,1.09-9.84-5.9-19.18-3.52-29.38,7.49-.6.65-1.45,1.02-2.34,1.02Z"/>
    </g>
  </g>
  <g id="g33">
    <path id="path66" class="cls-1" d="M64.61,609.08h29.68c8.92,0,15.46,2.54,19.64,7.61,4.18,5.08,5.53,12.15,4.07,21.22-.6,3.72-1.67,7.14-3.22,10.25-1.55,3.11-3.59,5.95-6.13,8.53-3.02,3.09-6.4,5.31-10.14,6.65-3.74,1.34-8.52,2.01-14.35,2.01h-13.22l-3.29,20.35h-15.43l12.38-76.62h0ZM78.09,621.2l-5.19,32.14h9.39c6.22,0,10.83-1.27,13.84-3.81,3-2.54,4.98-6.78,5.94-12.7.92-5.71.39-9.74-1.61-12.1-1.99-2.35-5.92-3.53-11.79-3.53h-10.57"/>
    <path id="path68" class="cls-1" d="M135.32,588.73h15.32l-3.29,20.35h13.63c8.58,0,14.52,1.63,17.83,4.87,3.31,3.25,4.39,8.49,3.22,15.71l-5.77,35.68h-15.55l5.49-33.96c.63-3.86.32-6.49-.91-7.88-1.23-1.39-3.8-2.09-7.71-2.09h-12.23l-7.1,43.93h-15.32l12.38-76.62"/>
    <path id="path70" class="cls-1" d="M198.72,609.08h29.68c8.92,0,15.46,2.54,19.64,7.61,4.18,5.08,5.53,12.15,4.07,21.22-.6,3.72-1.68,7.14-3.22,10.25-1.55,3.11-3.59,5.95-6.13,8.53-3.02,3.09-6.4,5.31-10.14,6.65-3.74,1.34-8.52,2.01-14.35,2.01h-13.22l-3.29,20.35h-15.43l12.38-76.62h0ZM212.19,621.2l-5.19,32.14h9.39c6.22,0,10.83-1.27,13.83-3.81,3-2.54,4.98-6.78,5.94-12.7.92-5.71.39-9.74-1.61-12.1-1.99-2.35-5.92-3.53-11.78-3.53h-10.57"/>
  </g>
  <g id="g65">
    <path id="path72" class="cls-3" d="M278.19,572.45h29.68l13.04,71.24,36.07-71.24h29.57l-15,92.84h-19.82l13.32-72.31-36.37,72.31h-21.48l-13.66-73.07-9.78,73.07h-20.59l15-92.84"/>
    <path id="path74" class="cls-3" d="M422.18,650.26h14.99l8.59-53.16h18.63l-10.72,66.35c-1.46,9.02-4.72,15.7-9.78,20.04-5.06,4.34-12.08,6.51-21.06,6.51h-36.53l2.23-13.81h33.32c3.58,0,6.46-.84,8.65-2.51,2.19-1.67,3.54-4.09,4.05-7.27l.19-1.14h-16.49c-10.55,0-17.74-2.01-21.58-6.03-3.84-4.02-5-10.73-3.48-20.12l6.79-42.03h18.42l-6.57,40.64c-.83,5.14-.58,8.51.76,10.11,1.33,1.6,4.53,2.4,9.59,2.4"/>
    <path id="path76" class="cls-3" d="M514.56,572.45h21.45l26,92.84h-22.5l-5.26-22.1h-41.78l-12.14,22.1h-21.45l55.68-92.84h0ZM521.52,590.88l-19.84,35.73h28.64l-8.81-35.73"/>
    <path id="path78" class="cls-3" d="M632.24,665.28h-35.79c-10.81,0-18.76-3.07-23.83-9.23-5.07-6.15-6.71-14.72-4.93-25.72.73-4.51,2.03-8.65,3.9-12.42,1.87-3.77,4.35-7.21,7.43-10.33,3.66-3.75,7.77-6.43,12.32-8.06,4.56-1.62,10.35-2.43,17.37-2.43h15.98l3.98-24.66h18.56l-15,92.84h0ZM616.04,650.67l6.28-38.87h-11.27c-7.56,0-13.16,1.53-16.82,4.58-3.66,3.06-6.06,8.14-7.22,15.26-1.12,6.91-.46,11.81,1.98,14.7,2.44,2.89,7.19,4.33,14.27,4.33h12.77"/>
    <path id="path80" class="cls-3" d="M659.45,597.11h71.54c10.37,0,17.53,1.96,21.47,5.87,3.94,3.92,5.2,10.27,3.78,19.07l-6.99,43.24h-18.77l6.61-40.9c.81-5.01.56-8.32-.74-9.92-1.31-1.6-4.4-2.4-9.28-2.4h-10.45l-8.6,53.22h-19.05l8.6-53.22h-21.77l-8.6,53.22h-18.77l11.02-68.18"/>
    <path id="path82" class="cls-3" d="M797.73,589.36h-19.54l2.73-16.91h19.54l-2.73,16.91ZM785.46,665.28h-19.54l11.02-68.18h19.54l-11.02,68.18"/>
    <path id="path84" class="cls-3" d="M812.59,597.11h35.05c10.59,0,17.85,1.93,21.76,5.78,3.91,3.85,5.15,10.24,3.7,19.17l-6.99,43.24h-18.63l6.63-41.02c.82-5.1.54-8.41-.85-9.92-1.39-1.52-4.55-2.28-9.48-2.28h-14.98l-8.6,53.22h-18.63l11.02-68.18"/>
  </g>
</svg>